{"title":"Sequoia.2014.WEBRip.480p.x264.AAC-VYTO [P2PDL]","uid":12308032,"size":321103372,"categoryP":"video","categoryS":"movies","magnet":"?xt=urn:btih:6576f5bb8128e25269e1ac14c4919ba8a25bb817&amp;dn=Sequoia.2014.WEBRip.480p.x264.AAC-VYTO+%5BP2PDL%5D&amp;tr=udp%3A%2F%2Ftracker.openbittorrent.com%3A80&amp;tr=udp%3A%2F%2Fopen.demonii.com%3A1337&amp;tr=udp%3A%2F%2Ftracker.coppersurfer.tk%3A6969&amp;tr=udp%3A%2F%2Fexodus.desync.com%3A6969","seeders":5,"leechers":0,"uploader":"ValidusVyto","files":7,"time":1440832826,"description":"____    ____ ____    ____ .___________.  ______   \n     /   /      /   / |           | /  __    \n    /   /      /   /  `---|  |----`|  |  |  | \n        /     _    _/       |  |     |  |  |  | \n       /        |  |         |  |     |  `--'  | \n    __/         |__|         |__|      ______/  \n                                                  \nPresenting Small Encodes with quality for years!\n                                                                                                   \n                                                                                                   \n\nSequoia.2014.WEBRip.480p.x264.AAC-VYTO\n\n\nGenre: Comedy, Drama, Romance &lt;a href=&quot;\nhttp://www.imdb.com/title/tt2516304/&quot; rel=&quot;nofollow&quot; target=&quot;_NEW&quot;&gt;\nhttp://www.imdb.com/title/tt2516304/&lt;/a&gt;\n\n\nGeneral\nFormat                         : MPEG-4\nFile size                      : 301 MiB\nDuration                       : 1h 27mn\nOverall bit rate               : 484 Kbps\n\nVideo\nFormat                         : AVC\nBit rate                       : 449 Kbps\nWidth                          : 720 pixels\nHeight                         : 384 pixels\nDisplay aspect ratio           : 1.85:1\nFrame rate mode                : Constant\nFrame rate                     : 23.976 fps\nBit depth                      : 8 bits\nStream size                    : 279 MiB (93%)\nWriting library                : x264 core 148 r2597\n\nAudio\nFormat                         : AAC\nBit rate mode                  : Variable\nBit rate                       : 32.0 Kbps\nChannel(s)                     : 2 channels \nChannel positions              : Front: L R \nSampling rate                  : 48.0 KHz \nStream size                    : 19.9 MiB (7%)\nLanguage                       : English\n\nSubtitle                       : Yes (English)\nSource                     \t   : 720p.WEB-DL.DD5.1.H264-FGT\n\nScreenshots:\n &lt;a href=&quot;\nhttp://ititli.com/Yy&quot; rel=&quot;nofollow&quot; target=&quot;_NEW&quot;&gt;\nhttp://ititli.com/Yy&lt;/a&gt; &lt;a href=&quot;\nhttp://ititli.com/Y3&quot; rel=&quot;nofollow&quot; target=&quot;_NEW&quot;&gt;\nhttp://ititli.com/Y3&lt;/a&gt; &lt;a href=&quot;\nhttp://ititli.com/YE&quot; rel=&quot;nofollow&quot; target=&quot;_NEW&quot;&gt;\nhttp://ititli.com/YE&lt;/a&gt; &lt;a href=&quot;\nhttp://ititli.com/YQ&quot; rel=&quot;nofollow&quot; target=&quot;_NEW&quot;&gt;\nhttp://ititli.com/YQ&lt;/a&gt; &lt;a href=&quot;\nhttp://ititli.com/YS&quot; rel=&quot;nofollow&quot; target=&quot;_NEW&quot;&gt;\nhttp://ititli.com/YS&lt;/a&gt; &lt;a href=&quot;\nhttp://ititli.com/YZ&quot; rel=&quot;nofollow&quot; target=&quot;_NEW&quot;&gt;\nhttp://ititli.com/YZ&lt;/a&gt; &lt;a href=&quot;\nhttp://ititli.com/Yc&quot; rel=&quot;nofollow&quot; target=&quot;_NEW&quot;&gt;\nhttp://ititli.com/Yc&lt;/a&gt; &lt;a href=&quot;\nhttp://ititli.com/Yi&quot; rel=&quot;nofollow&quot; target=&quot;_NEW&quot;&gt;\nhttp://ititli.com/Yi&lt;/a&gt; &lt;a href=&quot;\nhttp://ititli.com/Yp&quot; rel=&quot;nofollow&quot; target=&quot;_NEW&quot;&gt;\nhttp://ititli.com/Yp&lt;/a&gt; &lt;a href=&quot;\nhttp://ititli.com/YD&quot; rel=&quot;nofollow&quot; target=&quot;_NEW&quot;&gt;\nhttp://ititli.com/YD&lt;/a&gt; &lt;a href=&quot;\nhttp://ititli.com/Ya&quot; rel=&quot;nofollow&quot; target=&quot;_NEW&quot;&gt;\nhttp://ititli.com/Ya&lt;/a&gt; &lt;a href=&quot;\nhttp://ititli.com/Yb&quot; rel=&quot;nofollow&quot; target=&quot;_NEW&quot;&gt;\nhttp://ititli.com/Yb&lt;/a&gt;\n\n----------------------------------------------------------------------------------------------------\n\n\nEncoder Notes: Looking For Early Access To Anything You Can Provide DVDScr, R5, DVDR, BluRay, Direct\nAudio, Music Releases and Seedboxes. If You Got anything to offer please contact us.\n\nSupport us by donating BC - 1FgwdzPsd1y25Gea8wP1qni35uGCtmkRCD","torrent":{"xt":"urn:btih:6576f5bb8128e25269e1ac14c4919ba8a25bb817","amp;dn":"Sequoia.2014.WEBRip.480p.x264.AAC-VYTO+%5BP2PDL%5D","amp;tr":["udp%3A%2F%2Ftracker.openbittorrent.com%3A80","udp%3A%2F%2Fopen.demonii.com%3A1337","udp%3A%2F%2Ftracker.coppersurfer.tk%3A6969","udp%3A%2F%2Fexodus.desync.com%3A6969"],"infoHash":"6576f5bb8128e25269e1ac14c4919ba8a25bb817","infoHashBuffer":{"type":"Buffer","data":[101,118,245,187,129,40,226,82,105,225,172,20,196,145,155,168,162,91,184,23]},"announce":[],"urlList":[]}}